PathFileType	4	(X/Y/Z)	Run_500 04
DataRate	CameraRate	NumFrames	NumMarkers	Units	OrigDataRate	OrigDataStartFrame	OrigNumFrames
100	100	6	41	mm	100	54	125
Frame#	Time	RASI			RPSI			RTH1			RTH2			RTH3			LTH1			LTH2			LTH3			RTB1			RTB2			RTB3			LTB1			LTB2			LTB3			RCAL			RTOE			RMT5			LCAL			LTOE			LACR			RACR			CLAV			C7			RUA1			RUA2			RUA3			RLEL			RMEL			LUA1			LUA2			LUA3			LLEL			LMEL			RFAsuperior			RFAradius			RFAulna			LFAsuperior			LFAradius			LFAulna			LPSI			LASI			
		X1	Y1	Z1	X2	Y2	Z2	X3	Y3	Z3	X4	Y4	Z4	X5	Y5	Z5	X6	Y6	Z6	X7	Y7	Z7	X8	Y8	Z8	X9	Y9	Z9	X10	Y10	Z10	X11	Y11	Z11	X12	Y12	Z12	X13	Y13	Z13	X14	Y14	Z14	X15	Y15	Z15	X16	Y16	Z16	X17	Y17	Z17	X18	Y18	Z18	X19	Y19	Z19	X20	Y20	Z20	X21	Y21	Z21	X22	Y22	Z22	X23	Y23	Z23	X24	Y24	Z24	X25	Y25	Z25	X26	Y26	Z26	X27	Y27	Z27	X28	Y28	Z28	X29	Y29	Z29	X30	Y30	Z30	X31	Y31	Z31	X32	Y32	Z32	X33	Y33	Z33	X34	Y34	Z34	X35	Y35	Z35	X36	Y36	Z36	X37	Y37	Z37	X38	Y38	Z38	X39	Y39	Z39	X40	Y40	Z40	X41	Y41	Z41	

47	0.72	1106.51126	959.032494	-283.975789	940.03613	1021.406423	-369.809374	1103.247212	807.323219	-242.25497	1193.540682	756.889986	-256.031173	1221.085799	617.129259	-274.736597	1031.902262	827.729991	-607.104638	1095.120087	693.117613	-586.520833	1017.119293	577.843493	-567.401252	1158.463263	450.446605	-352.182654	1047.131212	464.066541	-304.309851	982.929313	417.836989	-360.625853	967.768899	304.250784	-468.92314	907.908476	264.817911	-508.512721	875.790346	201.698414	-443.89436	840.669674	493.458457	-361.969569	918.925109	270.291306	-351.659089	902.589402	271.920739	-274.15919	697.307739	141.450565	-422.779554	922.516293	68.265351	-405.663801	1197.598334	1470.032718	-596.857972	1136.53919	1476.48495	-259.387117	1208.378451	1406.977581	-388.937842	1107.994879	1509.35963	-443.066857	1022.253216	1391.376924	-187.967596	957.644552	1408.840721	-214.227211	936.853811	1342.861996	-181.744692	871.278972	1294.255373	-163.864237	855.219504	1290.981889	-254.860034	1150.680787	1353.10325	-677.527307	1064.09073	1307.806277	-676.134472	1099.557335	1237.284307	-704.239206	1082.783855	1173.889969	-725.744309	1045.294442	1152.168974	-643.616446	935.8111730000001	1230.134455	-156.826244	1046.100472	1108.538174	-195.015137	989.640278	1072.020221	-170.689664	1169.126959	1165.552829	-704.373156	1306.391063	1192.053435	-603.370805	1322.613146	1127.14123	-631.25925	947.865045	1030.549392	-463.131195	1117.170264	970.289948	-543.531801	
48	0.73	1109.333779	967.654861	-285.436453	943.19434	1028.20508	-372.912776	1108.255231	822.551424	-241.910148	1199.473672	777.375723	-258.7985	1236.046555	639.120424	-277.650823	1031.171499	829.53675	-605.910226	1079.844967	691.2483089999999	-586.044632	991.094758	582.089152	-568.099599	1189.409572	458.653377	-353.878968	1076.107508	459.179183	-306.806559	1018.575856	402.854436	-362.39516	928.600582	308.952644	-473.394106	866.240922	272.472694	-512.104786	833.820362	208.952137	-447.31758	866.9091560000001	458.561194	-366.415016	977.601874	249.815797	-350.771262	960.710654	250.778123	-273.125944	655.410563	156.510586	-426.866275	873.816503	66.969447	-406.211188	1198.892392	1480.994	-593.998427	1132.008383	1486.39952	-259.478035	1207.130348	1416.561391	-386.429657	1107.032362	1517.261846	-443.109756	1014.63922	1406.75145	-190.611737	952.047922	1425.558796	-219.768077	927.989277	1360.270311	-186.654432	860.2837500000001	1313.835776	-171.2614	846.977761	1311.086302	-263.066253	1156.624021	1361.821146	-674.381591	1070.773243	1314.238878	-673.253907	1109.238541	1244.727185	-700.798369	1094.764441	1179.739	-721.034371	1055.366506	1159.472176	-638.5798	923.91997	1250.236098	-162.367742	1034.450141	1127.464184	-198.144065	977.6037679999999	1091.779812	-173.915873	1180.99209	1176.398905	-696.437527	1312.901436	1214.096461	-592.191851	1333.411555	1148.988864	-615.995921	951.989103	1035.432262	-466.143561	1120.815975	971.69145	-543.797479	
49	0.74	1113.353006	977.616988	-287.598156	947.170748	1035.430679	-375.930727	1113.289531	837.846471	-241.575398	1204.337744	796.849432	-261.435282	1248.193905	660.083493	-280.218353	1030.575637	831.221119	-605.0276689999999	1065.546837	691.583438	-585.828805	967.02191	589.105142	-569.49259	1218.193241	466.038924	-356.106229	1104.701895	452.337928	-309.58944	1055.3188	387.86098	-365.209655	891.25702	316.587253	-478.614693	826.6823010000001	283.2205	-516.691467	794.288256	218.83067	-452.259312	897.319994	422.206428	-371.133979	1037.781847	232.350664	-352.008367	1020.031722	231.768376	-274.292525	617.049746	173.973873	-431.63147	825.905023	66.22927	-407.501862	1200.080166	1492.339572	-590.858747	1128.089895	1496.586809	-259.383683	1205.798898	1427.023215	-383.854955	1105.733767	1525.546869	-442.903412	1008.263322	1422.224358	-193.140326	947.794651	1442.476423	-225.3067	920.340688	1378.56746	-191.529501	850.805199	1333.918392	-178.44781	840.6932870000001	1331.454057	-271.030881	1161.974571	1371.729112	-671.2411959999999	1076.965397	1322.077063	-671.481132	1118.169457	1253.39833	-697.6341619999999	1105.761129	1187.057839	-716.520416	1064.270598	1168.164321	-634.3488589999999	913.392254	1270.21671	-167.722725	1024.636461	1146.686199	-201.429505	967.334102	1111.492879	-177.956588	1191.237565	1188.331374	-688.814249	1317.438077	1235.855043	-581.495666	1341.524469	1170.725125	-601.004984	956.8696	1040.629441	-469.220395	1124.706683	972.792313	-542.993643	
50	0.75	1118.192618	988.245039	-290.490297	951.655514	1042.883284	-378.415895	1118.798266	852.872729	-241.724847	1208.652315	814.796915	-264.134563	1257.545617	678.535213	-282.678338	1029.060336	833.156352	-604.763828	1053.209764	693.987654	-585.4492289999999	946.447556	598.112106	-571.109028	1244.992849	472.000664	-358.619769	1133.325285	443.505097	-312.511699	1093.311587	373.123212	-368.674114	856.5416289999999	326.997552	-484.133935	789.958213	296.999729	-521.91739	758.22783	230.727686	-458.932382	931.8272449999999	385.557207	-375.36974	1098.328106	217.979009	-356.108198	1080.195462	214.426317	-278.424786	583.217732	193.469584	-437.419792	779.251671	66.163768	-409.750608	1201.132367	1503.667003	-587.499119	1124.339251	1506.883708	-259.158184	1204.278823	1437.757492	-381.284935	1104.189058	1533.940064	-442.463312	1002.765559	1437.474249	-195.500735	944.6248409999999	1459.113985	-230.860842	913.873951	1397.212427	-196.320122	842.703549	1353.990163	-185.315087	835.86072	1351.40309	-278.583782	1167.372895	1382.427697	-668.268203	1083.464999	1331.141598	-670.789013	1126.729135	1262.984434	-695.003792	1115.938571	1195.48258	-712.599071	1072.564003	1177.76566	-631.439813	904.134197	1289.715685	-172.894507	1016.469378	1165.813855	-204.610427	958.6797299999999	1130.723606	-182.639178	1200.140862	1200.802487	-681.851628	1320.36083	1256.733277	-571.379041	1347.399641	1191.830994	-586.890937	962.171252	1045.96512	-472.291348	1128.717694	974.026838	-542.0228980000001	
51	0.76	1123.232798	998.32206	-293.940195	956.3389069999999	1050.41227	-380.601055	1124.817592	867.398804	-242.957745	1212.789498	830.450117	-267.185204	1264.074528	693.030209	-285.35727	1026.373355	836.326786	-605.321268	1042.686574	698.026361	-584.736357	929.147342	608.614868	-572.098967	1269.859596	476.152525	-361.076012	1162.258375	433.042266	-315.47627	1132.132071	358.753934	-372.450519	825.401578	339.996563	-489.468936	757.061233	313.374842	-527.159903	726.554807	244.118755	-466.700327	969.885674	349.418523	-378.768924	1158.430481	206.703487	-363.298922	1141.086642	198.61411	-285.87145	555.027971	214.985281	-444.557586	734.337456	66.813655	-413.010089	1202.036899	1514.588624	-584.011074	1120.702306	1516.867167	-259.040895	1202.63353	1448.038495	-378.854713	1102.603757	1542.023333	-441.827791	997.945375	1452.193549	-197.78401	942.281512	1474.981607	-236.304293	908.499894	1415.426383	-200.905548	835.763908	1373.463575	-191.750867	831.846774	1370.312007	-285.494191	1173.14481	1393.479107	-665.429522	1090.502312	1341.085111	-670.825515	1135.221563	1273.218852	-693.013971	1125.557375	1204.683539	-709.639773	1080.456572	1187.737014	-629.9878629999999	896.04691	1308.515724	-177.850945	1009.709808	1184.48459	-207.462817	951.4351809999999	1149.2047	-187.561499	1208.1462	1213.406669	-675.772998	1322.010478	1276.289988	-561.824373	1351.519766	1211.848981	-573.98555	967.4930879999999	1051.384863	-475.299544	1133.039662	976.622717	-542.32052	
52	0.77	1127.957942	1006.599371	-297.662325	960.885224	1057.761416	-382.984093	1130.661114	880.368248	-245.504992	1216.761445	842.756163	-270.607814	1267.9214	702.789495	-288.222298	1023.252482	841.5001999999999	-606.681208	1033.380376	703.212464	-583.680309	914.166247	620.535962	-571.856994	1292.627537	478.402175	-363.204464	1191.38756	421.397615	-318.45945	1171.068945	344.853385	-376.624832	798.626931	355.134114	-493.62938	729.21804	331.287907	-531.6302010000001	699.530918	258.789917	-473.960459	1010.888613	314.116928	-381.820584	1217.523258	198.575578	-372.816598	1202.188947	184.928328	-295.922648	532.904565	238.483684	-452.885793	691.602158	68.89593600000001	-417.162804	1203.038518	1524.73455	-580.3869	1117.532962	1525.905979	-259.188951	1201.127306	1457.220029	-376.563659	1101.18899	1549.292769	-441.059358	993.85464	1466.075237	-200.119363	940.623801	1489.62836	-241.501197	904.058497	1432.497799	-205.123483	829.780392	1391.790767	-197.620526	828.273717	1387.808788	-291.513686	1179.132454	1404.47291	-662.586693	1097.700944	1351.379999	-671.259195	1143.691163	1283.803713	-691.6440700000001	1134.813461	1214.339041	-707.879295	1088.073101	1197.597314	-629.852881	889.05246	1326.416151	-182.479197	1004.128515	1202.353021	-209.850194	945.403862	1166.746869	-192.2444	1215.555947	1225.859456	-670.703633	1322.661512	1294.204479	-552.811383	1354.31203	1230.368951	-562.420811	972.463598	1056.858572	-478.12233	1137.748512	981.36817	-544.383727	
